<svg xmlns="http://www.w3.org/2000/svg" xmlns:xlink="http://www.w3.org/1999/xlink" xmlns:lucid="lucid" width="1154.49" height="1108.9"><g transform="translate(-260 -60)" lucid:page-tab-id="0_0"><path d="M0 0h1533.02v1310.67H0z" fill="#fff"/><path d="M611.76 88c0-4.42 3.58-8 8-8h520.78c4.42 0 8 3.58 8 8v26.15c0 4.4-3.58 8-8 8H619.76c-4.42 0-8-3.6-8-8z" stroke="#000" stroke-opacity="0" stroke-width="2" fill="#fff" fill-opacity="0"/><use xlink:href="#a" transform="matrix(1,0,0,1,615.7595767063941,84) translate(109.45691358024692 23.657777777777778)"/><use xlink:href="#b" transform="matrix(1,0,0,1,615.7595767063941,84) translate(251.71246913580248 23.657777777777778)"/><use xlink:href="#c" transform="matrix(1,0,0,1,615.7595767063941,84) translate(266.2803703703704 23.657777777777778)"/><use xlink:href="#d" transform="matrix(1,0,0,1,615.7595767063941,84) translate(325.8630864197531 23.657777777777778)"/><path d="M280 140h380v300H280z" stroke="#248814" stroke-width="2" fill="#fff" fill-opacity="0"/><path d="M280 140h56v56h-56v-56z" stroke="#fff" stroke-opacity="0" fill="#248814"/><path d="M311.76 168.3h-1.18v-1.1c-.12-1.73-1.48-3.07-3.2-3.2-1.9-.13-3.54 1.3-3.67 3.2v1.07h-1.17c-.44 0-.8.36-.8.8v6.13c0 .44.36.8.8.8h9.23c.44 0 .8-.36.8-.8v-6.1c0-.44-.36-.8-.8-.8zm-6.4-1.06c.1-1.02 1-1.77 2-1.67.9.08 1.58.77 1.67 1.67v1.06h-3.72zm5.65 7.08h-7.67v-4.42h7.63z" stroke="#fff" stroke-opacity="0" fill="#fff"/><path d="M322.27 165.74c-.08-2.44-1.58-4.47-3.87-5.3-1.58-.46-3.16-.13-4.4.9-.68-1.44-1.47-2.6-2.6-3.75-3.24-3.36-7.94-4.3-12.18-2.4-4.04 1.9-6.4 5.63-6.54 10.05v.7c-3.4.98-5.66 4.08-5.5 7.65v.63c.4 4.28 3.92 7.52 8.2 7.47h26s7.42-.63 7.42-8.1c.04-3.9-2.66-7.2-6.53-7.86zm-.96 14.4h-25.9c-3.47.05-6.3-2.53-6.6-5.97v-.52c-.15-3.05 1.93-5.7 4.92-6.3.38-.12.63-.48.6-.9-.06-.4-.06-.73 0-1.14.07-3.78 2.1-6.94 5.52-8.6 1.25-.56 2.4-.8 3.83-.84 2.62.08 4.87 1.04 6.7 2.94 1.25 1.3 2.04 2.6 2.62 4.3.03.15.1.28.24.37.37.27.87.2 1.12-.17.83-1.18 2.25-1.67 3.62-1.3 1.8.72 2.87 2.4 2.83 4.32-.07.4.22.82.64.9 3.57.36 6.2 3.55 5.82 7.12-.3 3.13-2.7 5.52-5.82 5.85z" stroke="#fff" stroke-opacity="0" fill="#fff"/><use xlink:href="#e" transform="matrix(1,0,0,1,351,160) translate(0 14.4)"/><use xlink:href="#f" transform="matrix(1,0,0,1,351,160) translate(46.95 14.4)"/><path d="M880 140h514.5v400H880z" stroke="#248814" stroke-width="2" fill="#fff" fill-opacity="0"/><path d="M880 140h56v56h-56v-56z" stroke="#fff" stroke-opacity="0" fill="#248814"/><path d="M911.76 168.3h-1.18v-1.1c-.12-1.73-1.48-3.07-3.2-3.2-1.9-.13-3.54 1.3-3.67 3.2v1.07h-1.17c-.44 0-.8.36-.8.8v6.13c0 .44.36.8.8.8h9.23c.44 0 .8-.36.8-.8v-6.1c0-.44-.36-.8-.8-.8zm-6.4-1.06c.1-1.02 1-1.77 2-1.67.9.08 1.58.77 1.67 1.67v1.06h-3.72zm5.65 7.08h-7.67v-4.42h7.63z" stroke="#fff" stroke-opacity="0" fill="#fff"/><path d="M922.27 165.74c-.08-2.44-1.58-4.47-3.87-5.3-1.58-.46-3.16-.13-4.4.9-.68-1.44-1.47-2.6-2.6-3.75-3.24-3.36-7.94-4.3-12.18-2.4-4.04 1.9-6.4 5.63-6.54 10.05v.7c-3.4.98-5.66 4.08-5.5 7.65v.63c.4 4.28 3.92 7.52 8.2 7.47h26s7.42-.63 7.42-8.1c.04-3.9-2.66-7.2-6.53-7.86zm-.96 14.4h-25.9c-3.47.05-6.3-2.53-6.6-5.97v-.52c-.15-3.05 1.93-5.7 4.92-6.3.38-.12.63-.48.6-.9-.06-.4-.06-.73 0-1.14.07-3.78 2.1-6.94 5.52-8.6 1.25-.56 2.4-.8 3.83-.84 2.62.08 4.87 1.04 6.7 2.94 1.25 1.3 2.04 2.6 2.62 4.3.03.15.1.28.24.37.37.27.87.2 1.12-.17.83-1.18 2.25-1.67 3.62-1.3 1.8.72 2.87 2.4 2.83 4.32-.07.4.22.82.64.9 3.57.36 6.2 3.55 5.82 7.12-.3 3.13-2.7 5.52-5.82 5.85z" stroke="#fff" stroke-opacity="0" fill="#fff"/><use xlink:href="#g" transform="matrix(1,0,0,1,951,160) translate(0 14.4)"/><use xlink:href="#h" transform="matrix(1,0,0,1,951,160) translate(41.95 14.4)"/><path d="M350 186.2h300v240H350z" fill="#248814" fill-opacity=".13"/><path d="M350 186.2h56v56h-56v-56z" stroke="#fff" stroke-opacity="0" fill="#248814"/><path d="M393.38 208.4c-.15-.18-.34-.26-.56-.26h-5.15v-5.58c-.03-2.54-.96-4.7-2.84-6.4-1.9-1.84-4.15-2.75-6.77-2.75-2.65 0-4.9.84-6.8 2.63-1.9 1.7-2.87 3.87-2.9 6.4v5.66h-5.15c-.24 0-.43.08-.58.24-.16.17-.22.34-.22.6v25.28c0 .42.34.8.8.8h29.6c.46 0 .8-.38.8-.8v-25.3c0-.2-.06-.37-.22-.53zm-23.46-5.92c.03-2.12.8-3.87 2.37-5.28 1.6-1.5 3.52-2.2 5.73-2.2 2.22 0 4.12.74 5.7 2.24 1.54 1.4 2.32 3.2 2.32 5.32v5.58H369.9zm22.1 30.95h-28.03v-23.7h28z" stroke="#fff" stroke-opacity="0" fill="#fff"/><path d="M377.2 223.52v6.24h1.6v-6.23c2.13-.4 3.62-2.2 3.63-4.35 0-2.43-1.97-4.4-4.4-4.43-2.2-.03-4.06 1.5-4.44 3.68-.42 2.4 1.2 4.68 3.6 5.1zm.82-7.16c.78 0 1.44.27 2 .82.54.56.82 1.22.8 2 .03 1.55-1.2 2.8-2.74 2.82h-.06c-1.56.12-2.92-1.05-3.04-2.6-.12-1.57 1.05-2.94 2.6-3.04.16-.02.28-.02.44 0z" stroke="#fff" stroke-opacity="0" fill="#fff"/><use xlink:href="#i" transform="matrix(1,0,0,1,421,206.21010090367017) translate(0 14.4)"/><use xlink:href="#j" transform="matrix(1,0,0,1,421,206.21010090367017) translate(53.900000000000006 14.4)"/><path d="M522.18 338.4h-64.36v-64.37h64.36zm-61.02-3.35h57.68v-57.68h-57.68z" stroke="#fff" stroke-opacity="0" fill="#d86613"/><path d="M467.02 266.2h3.33v9.5h-3.33v-9.5zM477.47 266.2h3.33v9.5h-3.33v-9.5zM487.93 266.2h3.34v9.5h-3.34v-9.5zM498.4 266.2h3.33v9.5h-3.33v-9.5zM508.87 266.2h3.33v9.5h-3.33v-9.5zM467.02 336.73h3.33v9.48h-3.33v-9.47zM477.47 336.73h3.33v9.48h-3.33v-9.47zM487.93 336.73h3.34v9.48h-3.34v-9.47zM498.4 336.73h3.33v9.48h-3.33v-9.47zM508.87 336.73h3.33v9.48h-3.33v-9.47zM520.52 283.63H530v3.33h-9.48v-3.33zM520.52 294.08H530v3.33h-9.48v-3.32zM520.52 304.54H530v3.34h-9.48v-3.34zM520.52 315H530v3.34h-9.48V315zM520.52 325.46H530v3.33h-9.48v-3.34zM450 283.63h9.48v3.33H450v-3.33zM450 294.08h9.48v3.33H450v-3.32zM450 304.54h9.48v3.34H450v-3.34zM450 315h9.48v3.34H450V315zM450 325.46h9.48v3.33H450v-3.34z" stroke="#fff" stroke-opacity="0" fill="#d86613"/><use xlink:href="#k" transform="matrix(1,0,0,1,420,355.2101009036702) translate(15.599999999999994 14.4)"/><path d="M952.75 186.2H1380v340H952.75z" fill="#248814" fill-opacity=".13"/><path d="M952.75 186.2h56v56h-56v-56z" stroke="#fff" stroke-opacity="0" fill="#248814"/><path d="M996.13 208.4c-.16-.18-.34-.26-.56-.26h-5.15v-5.58c-.03-2.54-.97-4.7-2.84-6.4-1.9-1.84-4.15-2.75-6.77-2.75-2.64 0-4.9.84-6.8 2.63-1.9 1.7-2.86 3.87-2.9 6.4v5.66h-5.14c-.25 0-.44.08-.6.24-.15.17-.2.34-.2.6v25.28c0 .42.33.8.8.8h29.58c.46 0 .8-.38.8-.8v-25.3c0-.2-.05-.37-.2-.53zm-23.46-5.92c.03-2.12.8-3.87 2.37-5.28 1.62-1.5 3.52-2.2 5.74-2.2 2.2 0 4.12.74 5.7 2.24 1.54 1.4 2.32 3.2 2.32 5.32v5.58h-16.16zm22.1 30.95h-28.03v-23.7h28.02z" stroke="#fff" stroke-opacity="0" fill="#fff"/><path d="M979.94 223.52v6.24h1.6v-6.23c2.13-.4 3.63-2.2 3.64-4.35 0-2.43-1.98-4.4-4.42-4.43-2.2-.03-4.05 1.5-4.42 3.68-.4 2.4 1.2 4.68 3.6 5.1zm.82-7.16c.8 0 1.45.27 2 .82.55.56.83 1.22.82 2 0 1.55-1.2 2.8-2.75 2.82h-.07c-1.55.12-2.92-1.05-3.03-2.6-.12-1.57 1.05-2.94 2.6-3.04.16-.02.28-.02.43 0z" stroke="#fff" stroke-opacity="0" fill="#fff"/><use xlink:href="#i" transform="matrix(1,0,0,1,1023.7469805613725,206.21010090367017) translate(0 14.4)"/><use xlink:href="#j" transform="matrix(1,0,0,1,1023.7469805613725,206.21010090367017) translate(53.900000000000006 14.4)"/><path d="M1235.15 415.73h-65.05c-3.87 0-6.95-3.08-6.95-6.95v-64.9c0-3.94 3.16-7.1 7.1-7.1H1235c3.94 0 7.1 3.16 7.1 7.1v64.9c0 3.87-3.08 6.95-6.95 6.95zm-64.9-72.48c-.3 0-.62.32-.62.63v64.9c0 .32.15.48.47.48h65.05c.32 0 .48-.16.48-.48v-64.9c0-.3-.32-.63-.63-.63z" stroke="#fff" stroke-opacity="0" fill="#d86613"/><path d="M1157.1 379.48h-26.2c-3.95-.08-7.1-3.32-7.03-7.27v-64.4c-.08-3.96 3.08-7.2 7.02-7.28h64.82c3.94 0 7.1 3.16 7.1 7.1V331.08h-6.47v-23.3c0-.4-.24-.7-.63-.7h-64.83c-.32 0-.64.3-.72.7v64.43c.08.4.4.72.7.72h26.15z" stroke="#fff" stroke-opacity="0" fill="#d86613"/><path d="M1118.04 343.22h-20.3c-3.94 0-7.1-3.16-7.1-7.1v-64.74c0-3.95 3.16-7.1 7.1-7.1h64.75c3.94 0 7.1 3.15 7.1 7.1v23.3h-6.48v-23.3c0-.32-.3-.64-.63-.64h-64.75c-.32 0-.63.32-.63.64v64.74c0 .3.3.63.63.63h20.3z" stroke="#fff" stroke-opacity="0" fill="#d86613"/><path d="M1195.87 379.48h-65.05c-3.87 0-6.95-3.08-6.95-6.95v-64.9c0-3.95 3.16-7.1 7.1-7.1h64.74c3.96 0 7.12 3.15 7.12 7.1v64.9c0 3.87-3.08 6.95-6.95 6.95zm-64.9-72.48c-.3 0-.63.3-.63.63v64.9c0 .3.16.47.48.47h65.05c.32 0 .48-.16.48-.47v-64.9c0-.32-.32-.63-.64-.63z" stroke="#fff" stroke-opacity="0" fill="#fff" fill-opacity="0"/><path d="M1162.65 343.22h-65.06c-3.88 0-6.96-3.08-6.96-6.95v-64.9c0-3.94 3.16-7.1 7.1-7.1h64.75c3.94 0 7.1 3.16 7.1 7.1v64.9c0 3.87-3.08 6.95-6.95 6.95zm-64.9-72.48c-.32 0-.63.32-.63.64v64.9c0 .3.16.47.47.47h65.05c.3 0 .47-.16.47-.48v-64.9c0-.3-.3-.63-.63-.63z" stroke="#fff" stroke-opacity="0" fill="#fff" fill-opacity="0"/><use xlink:href="#l" transform="matrix(1,0,0,1,1060.6443639064491,424.72912637423724) translate(4.074999999999989 14.4)"/><use xlink:href="#m" transform="matrix(1,0,0,1,1060.6443639064491,424.72912637423724) translate(101.02499999999999 14.4)"/><use xlink:href="#n" transform="matrix(1,0,0,1,1060.6443639064491,424.72912637423724) translate(158.925 14.4)"/><path d="M952.75 813.28H1380v315.62H952.75z" fill="#248814" fill-opacity=".13"/><path d="M952.75 813.28h56v56h-56v-56z" stroke="#fff" stroke-opacity="0" fill="#248814"/><path d="M996.13 835.46c-.16-.17-.34-.25-.56-.25h-5.15v-5.57c-.03-2.53-.97-4.7-2.84-6.4-1.9-1.83-4.15-2.75-6.77-2.75-2.64 0-4.9.83-6.8 2.62-1.9 1.7-2.86 3.87-2.9 6.4v5.67h-5.14c-.25 0-.44.08-.6.25-.15.16-.2.33-.2.58v25.3c0 .4.33.78.8.78h29.58c.46 0 .8-.37.8-.8V836c0-.2-.05-.37-.2-.54zm-23.46-5.9c.03-2.13.8-3.88 2.37-5.3 1.62-1.5 3.52-2.2 5.74-2.2 2.2 0 4.12.75 5.7 2.25 1.54 1.42 2.32 3.2 2.32 5.33v5.58h-16.16zm22.1 30.94h-28.03v-23.7h28.02z" stroke="#fff" stroke-opacity="0" fill="#fff"/><path d="M979.94 850.6v6.24h1.6v-6.23c2.13-.38 3.63-2.18 3.64-4.35 0-2.43-1.98-4.4-4.42-4.42-2.2-.03-4.05 1.5-4.42 3.67-.4 2.4 1.2 4.7 3.6 5.1zm.82-7.17c.8 0 1.45.27 2 .83.55.55.83 1.2.82 2 0 1.54-1.2 2.8-2.75 2.82h-.07c-1.55.12-2.92-1.05-3.03-2.62-.12-1.56 1.05-2.92 2.6-3.03h.43z" stroke="#fff" stroke-opacity="0" fill="#fff"/><use xlink:href="#i" transform="matrix(1,0,0,1,1023.7469805613727,833.2831099529944) translate(0 14.4)"/><use xlink:href="#j" transform="matrix(1,0,0,1,1023.7469805613727,833.2831099529944) translate(53.900000000000006 14.4)"/><path d="M1235.15 1026.82h-65.05c-3.87 0-6.95-3.08-6.95-6.95v-64.9c0-3.94 3.16-7.1 7.1-7.1H1235c3.94 0 7.1 3.16 7.1 7.1v64.9c0 3.87-3.08 6.95-6.95 6.95zm-64.9-72.48c-.3 0-.62.32-.62.63v64.9c0 .32.15.48.47.48h65.05c.32 0 .48-.16.48-.48v-64.9c0-.3-.32-.63-.63-.63z" stroke="#fff" stroke-opacity="0" fill="#d86613"/><path d="M1157.1 990.57h-26.2c-3.95-.08-7.1-3.32-7.03-7.27v-64.42c-.08-3.95 3.08-7.2 7.02-7.27h64.82c3.94 0 7.1 3.17 7.1 7.12v23.46h-6.47v-23.3c0-.4-.24-.7-.63-.7h-64.83c-.32 0-.64.3-.72.7v64.42c.08.4.4.7.7.7h26.15z" stroke="#fff" stroke-opacity="0" fill="#d86613"/><path d="M1118.04 954.3h-20.3c-3.94 0-7.1-3.14-7.1-7.1v-64.73c0-3.95 3.16-7.1 7.1-7.1h64.75c3.94 0 7.1 3.15 7.1 7.1v23.3h-6.48v-23.3c0-.32-.3-.63-.63-.63h-64.75c-.32 0-.63.3-.63.63v64.74c0 .32.3.64.63.64h20.3z" stroke="#fff" stroke-opacity="0" fill="#d86613"/><path d="M1195.87 990.57h-65.05c-3.87 0-6.95-3.08-6.95-6.95v-64.9c0-3.95 3.16-7.1 7.1-7.1h64.74c3.96 0 7.12 3.15 7.12 7.1v64.9c0 3.87-3.08 6.95-6.95 6.95zm-64.9-72.48c-.3 0-.63.3-.63.62v64.9c0 .3.16.47.48.47h65.05c.32 0 .48-.17.48-.48v-64.9c0-.32-.32-.63-.64-.63z" stroke="#fff" stroke-opacity="0" fill="#fff" fill-opacity="0"/><path d="M1162.65 954.3h-65.06c-3.88 0-6.96-3.07-6.96-6.93v-64.9c0-3.95 3.16-7.1 7.1-7.1h64.75c3.94 0 7.1 3.15 7.1 7.1v64.9c0 3.86-3.08 6.94-6.95 6.94zm-64.9-72.46c-.32 0-.63.3-.63.63v64.9c0 .3.16.47.47.47h65.05c.3 0 .47-.16.47-.47v-64.9c0-.32-.3-.63-.63-.63z" stroke="#fff" stroke-opacity="0" fill="#fff" fill-opacity="0"/><use xlink:href="#l" transform="matrix(1,0,0,1,1060.6443639064491,1035.8199330127013) translate(4.074999999999989 14.4)"/><use xlink:href="#m" transform="matrix(1,0,0,1,1060.6443639064491,1035.8199330127013) translate(101.02499999999999 14.4)"/><use xlink:href="#n" transform="matrix(1,0,0,1,1060.6443639064491,1035.8199330127013) translate(158.925 14.4)"/><path d="M280 490.27h380V1140H280z" stroke="#248814" stroke-width="2" fill="#fff" fill-opacity="0"/><path d="M280 490.27h56v56h-56v-56z" stroke="#fff" stroke-opacity="0" fill="#248814"/><path d="M311.76 518.58h-1.18v-1.1c-.12-1.74-1.48-3.08-3.2-3.2-1.9-.13-3.54 1.3-3.67 3.2v1.06h-1.17c-.44 0-.8.36-.8.8v6.13c0 .44.36.8.8.8h9.23c.44 0 .8-.36.8-.8v-6.1c0-.43-.36-.8-.8-.8zm-6.4-1.07c.1-1 1-1.76 2-1.66.9.08 1.58.77 1.67 1.67v1.08h-3.72zm5.65 7.1h-7.67v-4.43h7.63z" stroke="#fff" stroke-opacity="0" fill="#fff"/><path d="M322.27 516.02c-.08-2.45-1.58-4.48-3.87-5.3-1.58-.47-3.16-.14-4.4.9-.68-1.45-1.47-2.6-2.6-3.76-3.24-3.35-7.94-4.28-12.18-2.38-4.04 1.9-6.4 5.62-6.54 10.04v.72c-3.4.96-5.66 4.06-5.5 7.63v.63c.4 4.3 3.92 7.52 8.2 7.47h26s7.42-.63 7.42-8.1c.04-3.9-2.66-7.2-6.53-7.85zm-.96 14.4h-25.9c-3.47.04-6.3-2.54-6.6-5.97v-.52c-.15-3.05 1.93-5.72 4.92-6.32.38-.1.63-.46.6-.87-.06-.4-.06-.74 0-1.15.07-3.8 2.1-6.95 5.52-8.6 1.25-.57 2.4-.82 3.83-.85 2.62.1 4.87 1.05 6.7 2.94 1.25 1.3 2.04 2.6 2.62 4.3.03.15.1.3.24.37.37.27.87.2 1.12-.17.83-1.18 2.25-1.67 3.62-1.3 1.8.73 2.87 2.4 2.83 4.32-.07.4.22.82.64.9 3.57.36 6.2 3.54 5.82 7.1-.3 3.14-2.7 5.53-5.82 5.86z" stroke="#fff" stroke-opacity="0" fill="#fff"/><use xlink:href="#o" transform="matrix(1,0,0,1,351,510.27353514067363) translate(0 14.4)"/><use xlink:href="#p" transform="matrix(1,0,0,1,351,510.27353514067363) translate(55.5 14.4)"/><use xlink:href="#q" transform="matrix(1,0,0,1,351,510.27353514067363) translate(116.4 14.4)"/><path d="M350 550h300v540H350z" fill="#248814" fill-opacity=".13"/><path d="M350 550h56v56h-56v-56z" stroke="#fff" stroke-opacity="0" fill="#248814"/><path d="M393.38 572.18c-.15-.17-.34-.25-.56-.25h-5.15v-5.58c-.03-2.54-.96-4.7-2.84-6.4-1.9-1.84-4.15-2.75-6.77-2.75-2.65 0-4.9.83-6.8 2.62-1.9 1.7-2.87 3.87-2.9 6.4v5.66h-5.15c-.24 0-.43.1-.58.25-.16.17-.22.34-.22.6V598c0 .43.34.8.8.8h29.6c.46 0 .8-.37.8-.8v-25.28c0-.2-.06-.38-.22-.54zm-23.46-5.9c.03-2.13.8-3.88 2.37-5.3 1.6-1.5 3.52-2.2 5.73-2.2 2.22 0 4.12.75 5.7 2.25 1.54 1.4 2.32 3.2 2.32 5.32v5.58H369.9zm22.1 30.94h-28.03v-23.7h28z" stroke="#fff" stroke-opacity="0" fill="#fff"/><path d="M377.2 587.3v6.25h1.6v-6.23c2.13-.4 3.62-2.2 3.63-4.35 0-2.43-1.97-4.4-4.4-4.43-2.2-.03-4.06 1.5-4.44 3.68-.42 2.4 1.2 4.68 3.6 5.1zm.82-7.15c.78 0 1.44.27 2 .82.54.56.82 1.22.8 2 .03 1.55-1.2 2.8-2.74 2.82h-.06c-1.56.1-2.92-1.06-3.04-2.62-.12-1.56 1.05-2.93 2.6-3.03.16-.02.28-.02.44 0z" stroke="#fff" stroke-opacity="0" fill="#fff"/><use xlink:href="#i" transform="matrix(1,0,0,1,421,570) translate(0 14.4)"/><use xlink:href="#j" transform="matrix(1,0,0,1,421,570) translate(53.900000000000006 14.4)"/><path d="M492.18 712.18h-64.36v-64.36h64.36zm-61.02-3.34h57.68v-57.68h-57.68z" stroke="#fff" stroke-opacity="0" fill="#d86613"/><path d="M437.02 640h3.33v9.48h-3.33V640zM447.47 640h3.33v9.48h-3.33V640zM457.93 640h3.34v9.48h-3.34V640zM468.4 640h3.33v9.48h-3.33V640zM478.87 640h3.33v9.48h-3.33V640zM437.02 710.52h3.33V720h-3.33v-9.48zM447.47 710.52h3.33V720h-3.33v-9.48zM457.93 710.52h3.34V720h-3.34v-9.48zM468.4 710.52h3.33V720h-3.33v-9.48zM478.87 710.52h3.33V720h-3.33v-9.48zM490.52 657.42H500v3.33h-9.48v-3.33zM490.52 667.87H500v3.33h-9.48v-3.33zM490.52 678.33H500v3.34h-9.48v-3.34zM490.52 688.8H500v3.33h-9.48v-3.33zM490.52 699.25H500v3.33h-9.48v-3.33zM420 657.42h9.48v3.33H420v-3.33zM420 667.87h9.48v3.33H420v-3.33zM420 678.33h9.48v3.34H420v-3.34zM420 688.8h9.48v3.33H420v-3.33zM420 699.25h9.48v3.33H420v-3.33z" stroke="#fff" stroke-opacity="0" fill="#d86613"/><use xlink:href="#r" transform="matrix(1,0,0,1,390,729) translate(6.099999999999994 14.4)"/><path d="M492.18 912.18h-64.36v-64.36h64.36zm-61.02-3.34h57.68v-57.68h-57.68z" stroke="#fff" stroke-opacity="0" fill="#d86613"/><path d="M437.02 840h3.33v9.48h-3.33V840zM447.47 840h3.33v9.48h-3.33V840zM457.93 840h3.34v9.48h-3.34V840zM468.4 840h3.33v9.48h-3.33V840zM478.87 840h3.33v9.48h-3.33V840zM437.02 910.52h3.33V920h-3.33v-9.48zM447.47 910.52h3.33V920h-3.33v-9.48zM457.93 910.52h3.34V920h-3.34v-9.48zM468.4 910.52h3.33V920h-3.33v-9.48zM478.87 910.52h3.33V920h-3.33v-9.48zM490.52 857.42H500v3.33h-9.48v-3.33zM490.52 867.87H500v3.33h-9.48v-3.33zM490.52 878.33H500v3.34h-9.48v-3.34zM490.52 888.8H500v3.33h-9.48v-3.33zM490.52 899.25H500v3.33h-9.48v-3.33zM420 857.42h9.48v3.33H420v-3.33zM420 867.87h9.48v3.33H420v-3.33zM420 878.33h9.48v3.34H420v-3.34zM420 888.8h9.48v3.33H420v-3.33zM420 899.25h9.48v3.33H420v-3.33z" stroke="#fff" stroke-opacity="0" fill="#d86613"/><use xlink:href="#s" transform="matrix(1,0,0,1,390,929) translate(20.6 14.4)"/><path d="M880 753.28h514.5v395.62H880z" stroke="#248814" stroke-width="2" fill="#fff" fill-opacity="0"/><path d="M880 753.28h56v56h-56v-56z" stroke="#fff" stroke-opacity="0" fill="#248814"/><path d="M911.76 781.6h-1.18v-1.12c-.12-1.73-1.48-3.07-3.2-3.2-1.9-.12-3.54 1.3-3.67 3.2v1.07h-1.17c-.44 0-.8.36-.8.8v6.13c0 .44.36.8.8.8h9.23c.44 0 .8-.36.8-.8v-6.1c0-.43-.36-.8-.8-.8zm-6.4-1.08c.1-1.02 1-1.77 2-1.67.9.08 1.58.77 1.67 1.67v1.07h-3.72zm5.65 7.08h-7.67v-4.42h7.63z" stroke="#fff" stroke-opacity="0" fill="#fff"/><path d="M922.27 779.03c-.08-2.45-1.58-4.48-3.87-5.3-1.58-.47-3.16-.14-4.4.9-.68-1.45-1.47-2.6-2.6-3.76-3.24-3.35-7.94-4.28-12.18-2.4-4.04 1.9-6.4 5.64-6.54 10.06v.72c-3.4.96-5.66 4.06-5.5 7.63v.63c.4 4.3 3.92 7.53 8.2 7.48h26s7.42-.63 7.42-8.1c.04-3.9-2.66-7.2-6.53-7.85zm-.96 14.38h-25.9c-3.47.07-6.3-2.5-6.6-5.94v-.52c-.15-3.05 1.93-5.72 4.92-6.32.38-.1.63-.47.6-.88-.06-.4-.06-.74 0-1.15.07-3.8 2.1-6.96 5.52-8.6 1.25-.58 2.4-.83 3.83-.86 2.62.1 4.87 1.05 6.7 2.94 1.25 1.3 2.04 2.6 2.62 4.3.03.15.1.3.24.37.37.27.87.2 1.12-.17.83-1.18 2.25-1.67 3.62-1.3 1.8.73 2.87 2.4 2.83 4.32-.07.42.22.83.64.9 3.57.37 6.2 3.55 5.82 7.12-.3 3.13-2.7 5.52-5.82 5.85z" stroke="#fff" stroke-opacity="0" fill="#fff"/><use xlink:href="#g" transform="matrix(1,0,0,1,951,773.2831099529944) translate(0 14.4)"/><use xlink:href="#t" transform="matrix(1,0,0,1,951,773.2831099529944) translate(41.95 14.4)"/><path d="M766.8 928.52l-6.8-6.72-6.7 6.8-2.42-2.4 7.92-7.93c.65-.66 1.73-.67 2.4 0l7.92 7.94zM758.3 963.8h3.4v17.72h-3.4v-17.7z" stroke="#fff" stroke-opacity="0" fill="#693cc5"/><path d="M758.3 920.66h3.4V937h-3.4v-16.34zM760 984.5c-.47 0-.88-.18-1.2-.5l-7.92-7.94 2.4-2.4 6.72 6.8 6.7-6.8 2.42 2.4-7.92 7.93c-.32.32-.73.5-1.2.5zM784.96 960.2l-2.4-2.3 6.8-6.73-6.8-6.72 2.4-2.4 7.95 7.92c.67.65.68 1.74 0 2.4v.02zM729.57 949.4h12.17v3.4h-12.17v-3.4z" stroke="#fff" stroke-opacity="0" fill="#693cc5"/><path d="M778.2 949.4h12.23v3.4H778.2v-3.4zM735.03 960.2l-7.93-7.9c-.67-.66-.67-1.74 0-2.4l7.93-7.93 2.4 2.4-6.72 6.72 6.8 6.7z" stroke="#fff" stroke-opacity="0" fill="#693cc5"/><path d="M760 991.1c-22.08 0-40-17.93-40-40 0-22.1 17.92-40 40-40s40 17.9 40 40c0 22.07-17.92 40-40 40zm0-76.57c-20.24 0-36.56 16.32-36.56 36.56 0 20.23 16.32 36.55 36.56 36.55 20.24 0 36.56-16.32 36.56-36.56 0-20.25-16.32-36.57-36.56-36.57z" stroke="#fff" stroke-opacity="0" fill="#693cc5"/><path d="M768.98 960.73h-17.32c-3.64.06-6.72-2.6-7.22-6.24v-.46c-.1-2.63 1.34-4.95 3.77-6 .22-3.4 2.13-6.18 5.2-7.64 3.44-1.5 7.17-.76 9.8 1.92.55.53.96 1.06 1.4 1.7 2.42-.92 5.13.33 6.07 2.75.1.32.18.6.2.9 2.9.8 4.78 3.36 4.72 6.33.2 3.44-2.38 6.4-5.84 6.64h-.68zm-12.05-17.65c-.8 0-1.5.13-2.2.44-1.9.95-3.07 2.7-3.13 4.8v.68c.1.85-.43 1.63-1.27 1.86-1.56.23-2.65 1.6-2.53 3.18v.26c.38 1.83 1.96 3.07 3.83 3h17.17c3.4 0 3.4-2.43 3.4-3.24 0-.8 0-2.65-3.15-3.28-.75-.17-1.3-.8-1.34-1.6 0-1.23-.62-2.03-1.4-2.03-.4 0-.74.2-1 .53-.55.73-1.6.9-2.36.33-.28-.2-.47-.45-.6-.77-.33-1-.8-1.75-1.52-2.5-1.1-1.08-2.36-1.63-3.9-1.65z" stroke="#fff" stroke-opacity="0" fill="#693cc5"/><use xlink:href="#u" transform="matrix(1,0,0,1,690,1000.0908066384642) translate(39.05 14.4)"/><path d="M766.8 617.43l-6.8-6.72-6.7 6.8-2.42-2.38 7.92-7.94c.65-.66 1.73-.67 2.4 0l7.92 7.94zM758.3 652.7h3.4v17.73h-3.4V652.7z" stroke="#fff" stroke-opacity="0" fill="#693cc5"/><path d="M758.3 609.57h3.4v16.34h-3.4v-16.33zM760 673.4c-.47 0-.88-.17-1.2-.5l-7.92-7.93 2.4-2.4 6.72 6.8 6.7-6.8 2.42 2.4-7.92 7.93c-.32.33-.73.5-1.2.5zM784.96 649.12l-2.4-2.3 6.8-6.74-6.8-6.72 2.4-2.4 7.95 7.92c.67.65.68 1.74 0 2.4v.02zM729.57 638.3h12.17v3.4h-12.17v-3.4z" stroke="#fff" stroke-opacity="0" fill="#693cc5"/><path d="M778.2 638.3h12.23v3.4H778.2v-3.4zM735.03 649.12l-7.93-7.92c-.67-.65-.67-1.73 0-2.4l7.93-7.92 2.4 2.4-6.72 6.72 6.8 6.7z" stroke="#fff" stroke-opacity="0" fill="#693cc5"/><path d="M760 680c-22.08 0-40-17.92-40-40s17.92-40 40-40 40 17.92 40 40-17.92 40-40 40zm0-76.56c-20.24 0-36.56 16.32-36.56 36.56 0 20.24 16.32 36.56 36.56 36.56 20.24 0 36.56-16.32 36.56-36.56 0-20.24-16.32-36.56-36.56-36.56z" stroke="#fff" stroke-opacity="0" fill="#693cc5"/><path d="M768.98 649.63h-17.32c-3.64.07-6.72-2.6-7.22-6.24v-.45c-.1-2.63 1.34-4.95 3.77-6 .22-3.4 2.13-6.18 5.2-7.64 3.44-1.48 7.17-.75 9.8 1.93.55.53.96 1.06 1.4 1.7 2.42-.92 5.13.32 6.07 2.75.1.32.18.6.2.9 2.9.8 4.78 3.36 4.72 6.33.2 3.45-2.38 6.42-5.84 6.65h-.68zM756.93 632c-.8 0-1.5.12-2.2.43-1.9.95-3.07 2.7-3.13 4.8v.68c.1.86-.43 1.64-1.27 1.87-1.56.23-2.65 1.6-2.53 3.18v.26c.38 1.84 1.96 3.08 3.83 3.02h17.17c3.4 0 3.4-2.45 3.4-3.25 0-.8 0-2.65-3.15-3.3-.75-.15-1.3-.8-1.34-1.57 0-1.24-.62-2.04-1.4-2.04-.4 0-.74.2-1 .53-.55.72-1.6.9-2.36.32-.28-.2-.47-.46-.6-.78-.33-1-.8-1.75-1.52-2.5-1.1-1.08-2.36-1.63-3.9-1.65z" stroke="#fff" stroke-opacity="0" fill="#693cc5"/><g><use xlink:href="#u" transform="matrix(1,0,0,1,690,689) translate(39.05 14.4)"/></g><path d="M801 951.1h59.5" stroke="#000" stroke-width="2" fill="none"/><path d="M801.03 952.1h-1.1l.07-1-.04-1h1.07z"/><path d="M875.76 951.1l-14.26 4.63v-9.27z" stroke="#000" stroke-width="2"/><path d="M760 910.1v-98h-80.5" stroke="#000" stroke-width="2" fill="none"/><path d="M761 911.15l-1-.06-1 .03v-1.06h2z"/><path d="M664.24 812.1l14.26-4.64v9.27z" stroke="#000" stroke-width="2"/><path d="M760 599v-28.5h377.24v-11" stroke="#000" stroke-width="2" fill="none"/><path d="M761 600.06l-1-.06-1 .04v-1.07h2z"/><path d="M1137.24 544.24l4.64 14.26h-9.27z" stroke="#000" stroke-width="2"/><path d="M760 681v100.15h-80.5" stroke="#000" stroke-width="2" fill="none"/><path d="M760 680l1-.04v1.07h-2v-1.1z"/><path d="M664.24 781.15l14.26-4.63v9.27z" stroke="#000" stroke-width="2"/><defs><path fill="#b2b2b2" d="M230 0l2-204L168 0h-37L68-204 70 0H24v-248h70l56 185 57-185h69V0h-46" id="v"/><path fill="#b2b2b2" d="M110-194c64 0 96 36 96 99 0 64-35 99-97 99-61 0-95-36-95-99 0-62 34-99 96-99zm-1 164c35 0 45-28 45-65 0-40-10-65-43-65-34 0-45 26-45 65 0 36 10 65 43 65" id="w"/><path fill="#b2b2b2" d="M135-194c87-1 58 113 63 194h-50c-7-57 23-157-34-157-59 0-34 97-39 157H25l-1-190h47c2 12-1 28 3 38 12-26 28-41 61-42" id="x"/><path fill="#b2b2b2" d="M25-224v-37h50v37H25zM25 0v-190h50V0H25" id="y"/><path fill="#b2b2b2" d="M115-3C79 11 28 4 28-45v-112H4v-33h27l15-45h31v45h36v33H77v99c-1 23 16 31 38 25v30" id="z"/><path fill="#b2b2b2" d="M135-150c-39-12-60 13-60 57V0H25l-1-190h47c2 13-1 29 3 40 6-28 27-53 61-41v41" id="A"/><path fill="#b2b2b2" d="M195-6C206 82 75 100 31 46c-4-6-6-13-8-21l49-6c3 16 16 24 34 25 40 0 42-37 40-79-11 22-30 35-61 35-53 0-70-43-70-97 0-56 18-96 73-97 30 0 46 14 59 34l2-30h47zm-90-29c32 0 41-27 41-63 0-35-9-62-40-62-32 0-39 29-40 63 0 36 9 62 39 62" id="B"/><g id="a"><use transform="matrix(0.0728395061728395,0,0,0.0728395061728395,0,0)" xlink:href="#v"/><use transform="matrix(0.0728395061728395,0,0,0.0728395061728395,21.77901234567901,0)" xlink:href="#w"/><use transform="matrix(0.0728395061728395,0,0,0.0728395061728395,37.73086419753086,0)" xlink:href="#x"/><use transform="matrix(0.0728395061728395,0,0,0.0728395061728395,53.68271604938271,0)" xlink:href="#y"/><use transform="matrix(0.0728395061728395,0,0,0.0728395061728395,60.966666666666654,0)" xlink:href="#z"/><use transform="matrix(0.0728395061728395,0,0,0.0728395061728395,69.63456790123456,0)" xlink:href="#w"/><use transform="matrix(0.0728395061728395,0,0,0.0728395061728395,85.58641975308642,0)" xlink:href="#A"/><use transform="matrix(0.0728395061728395,0,0,0.0728395061728395,95.78395061728395,0)" xlink:href="#y"/><use transform="matrix(0.0728395061728395,0,0,0.0728395061728395,103.0679012345679,0)" xlink:href="#x"/><use transform="matrix(0.0728395061728395,0,0,0.0728395061728395,119.01975308641975,0)" xlink:href="#B"/></g><path fill="#b2b2b2" d="M4 7l51-268h42L46 7H4" id="C"/><use transform="matrix(0.0728395061728395,0,0,0.0728395061728395,0,0)" xlink:href="#C" id="b"/><path fill="#b2b2b2" d="M24 0v-248h195v40H76v63h132v40H76v65h150V0H24" id="D"/><path fill="#b2b2b2" d="M24 0v-248h52v208h133V0H24" id="E"/><path fill="#b2b2b2" d="M195 0l-88-114-31 24V0H24v-248h52v113l112-113h60L142-143 257 0h-62" id="F"/><g id="c"><use transform="matrix(0.0728395061728395,0,0,0.0728395061728395,0,0)" xlink:href="#D"/><use transform="matrix(0.0728395061728395,0,0,0.0728395061728395,17.48148148148148,0)" xlink:href="#E"/><use transform="matrix(0.0728395061728395,0,0,0.0728395061728395,33.43333333333333,0)" xlink:href="#F"/></g><path fill="#b2b2b2" d="M185-48c-13 30-37 53-82 52C43 2 14-33 14-96s30-98 90-98c62 0 83 45 84 108H66c0 31 8 55 39 56 18 0 30-7 34-22zm-45-69c5-46-57-63-70-21-2 6-4 13-4 21h74" id="G"/><path fill="#b2b2b2" d="M231 0h-52l-39-155L100 0H48L-1-190h46L77-45c9-52 24-97 36-145h53l37 145 32-145h46" id="H"/><path fill="#b2b2b2" d="M147 0L96-86 75-71V0H25v-261h50v150l67-79h53l-66 74L201 0h-54" id="I"/><g id="d"><use transform="matrix(0.0728395061728395,0,0,0.0728395061728395,0,0)" xlink:href="#x"/><use transform="matrix(0.0728395061728395,0,0,0.0728395061728395,15.95185185185185,0)" xlink:href="#G"/><use transform="matrix(0.0728395061728395,0,0,0.0728395061728395,30.51975308641975,0)" xlink:href="#z"/><use transform="matrix(0.0728395061728395,0,0,0.0728395061728395,39.187654320987654,0)" xlink:href="#H"/><use transform="matrix(0.0728395061728395,0,0,0.0728395061728395,59.582716049382704,0)" xlink:href="#w"/><use transform="matrix(0.0728395061728395,0,0,0.0728395061728395,75.53456790123457,0)" xlink:href="#A"/><use transform="matrix(0.0728395061728395,0,0,0.0728395061728395,85.7320987654321,0)" xlink:href="#I"/></g><path fill="#248814" d="M137 0h-34L2-248h35l83 218 83-218h36" id="J"/><path fill="#248814" d="M30-248c87 1 191-15 191 75 0 78-77 80-158 76V0H30v-248zm33 125c57 0 124 11 124-50 0-59-68-47-124-48v98" id="K"/><path fill="#248814" d="M212-179c-10-28-35-45-73-45-59 0-87 40-87 99 0 60 29 101 89 101 43 0 62-24 78-52l27 14C228-24 195 4 139 4 59 4 22-46 18-125c-6-104 99-153 187-111 19 9 31 26 39 46" id="L"/><path fill="#248814" d="M33-154v-36h34v36H33zM33 0v-36h34V0H33" id="M"/><g id="e"><use transform="matrix(0.05,0,0,0.05,0,0)" xlink:href="#J"/><use transform="matrix(0.05,0,0,0.05,12,0)" xlink:href="#K"/><use transform="matrix(0.05,0,0,0.05,24,0)" xlink:href="#L"/><use transform="matrix(0.05,0,0,0.05,36.95,0)" xlink:href="#M"/></g><path fill="#248814" d="M141-36C126-15 110 5 73 4 37 3 15-17 15-53c-1-64 63-63 125-63 3-35-9-54-41-54-24 1-41 7-42 31l-33-3c5-37 33-52 76-52 45 0 72 20 72 64v82c-1 20 7 32 28 27v20c-31 9-61-2-59-35zM48-53c0 20 12 33 32 33 41-3 63-29 60-74-43 2-92-5-92 41" id="N"/><path fill="#248814" d="M206 0h-36l-40-164L89 0H53L-1-190h32L70-26l43-164h34l41 164 42-164h31" id="O"/><path fill="#248814" d="M135-143c-3-34-86-38-87 0 15 53 115 12 119 90S17 21 10-45l28-5c4 36 97 45 98 0-10-56-113-15-118-90-4-57 82-63 122-42 12 7 21 19 24 35" id="P"/><path fill="#248814" d="M16-82v-28h88v28H16" id="Q"/><path fill="#248814" d="M210-169c-67 3-38 105-44 169h-31v-121c0-29-5-50-35-48C34-165 62-65 56 0H25l-1-190h30c1 10-1 24 2 32 10-44 99-50 107 0 11-21 27-35 58-36 85-2 47 119 55 194h-31v-121c0-29-5-49-35-48" id="R"/><path fill="#248814" d="M117-194c89-4 53 116 60 194h-32v-121c0-31-8-49-39-48C34-167 62-67 57 0H25l-1-190h30c1 10-1 24 2 32 11-22 29-35 61-36" id="S"/><path fill="#248814" d="M177-190C167-65 218 103 67 71c-23-6-38-20-44-43l32-5c15 47 100 32 89-28v-30C133-14 115 1 83 1 29 1 15-40 15-95c0-56 16-97 71-98 29-1 48 16 59 35 1-10 0-23 2-32h30zM94-22c36 0 50-32 50-73 0-42-14-75-50-75-39 0-46 34-46 75s6 73 46 73" id="T"/><path fill="#248814" d="M100-194c63 0 86 42 84 106H49c0 40 14 67 53 68 26 1 43-12 49-29l28 8c-11 28-37 45-77 45C44 4 14-33 15-96c1-61 26-98 85-98zm52 81c6-60-76-77-97-28-3 7-6 17-6 28h103" id="U"/><path fill="#248814" d="M114-163C36-179 61-72 57 0H25l-1-190h30c1 12-1 29 2 39 6-27 23-49 58-41v29" id="V"/><g id="f"><use transform="matrix(0.05,0,0,0.05,0,0)" xlink:href="#N"/><use transform="matrix(0.05,0,0,0.05,10,0)" xlink:href="#O"/><use transform="matrix(0.05,0,0,0.05,22.950000000000003,0)" xlink:href="#P"/><use transform="matrix(0.05,0,0,0.05,31.950000000000003,0)" xlink:href="#Q"/><use transform="matrix(0.05,0,0,0.05,37.900000000000006,0)" xlink:href="#R"/><use transform="matrix(0.05,0,0,0.05,52.85,0)" xlink:href="#N"/><use transform="matrix(0.05,0,0,0.05,62.85,0)" xlink:href="#S"/><use transform="matrix(0.05,0,0,0.05,72.85000000000001,0)" xlink:href="#N"/><use transform="matrix(0.05,0,0,0.05,82.85000000000001,0)" xlink:href="#T"/><use transform="matrix(0.05,0,0,0.05,92.85000000000001,0)" xlink:href="#U"/><use transform="matrix(0.05,0,0,0.05,102.85000000000001,0)" xlink:href="#V"/></g><g id="g"><use transform="matrix(0.05,0,0,0.05,0,0)" xlink:href="#J"/><use transform="matrix(0.05,0,0,0.05,12,0)" xlink:href="#K"/><use transform="matrix(0.05,0,0,0.05,24,0)" xlink:href="#L"/></g><path fill="#248814" d="M96-169c-40 0-48 33-48 73s9 75 48 75c24 0 41-14 43-38l32 2c-6 37-31 61-74 61-59 0-76-41-82-99-10-93 101-131 147-64 4 7 5 14 7 22l-32 3c-4-21-16-35-41-35" id="W"/><path fill="#248814" d="M24 0v-261h32V0H24" id="X"/><path fill="#248814" d="M101-251c68 0 85 55 85 127S166 4 100 4C33 4 14-52 14-124c0-73 17-127 87-127zm-1 229c47 0 54-49 54-102s-4-102-53-102c-51 0-55 48-55 102 0 53 5 102 54 102" id="Y"/><path fill="#248814" d="M27 0v-27h64v-190l-56 39v-29l58-41h29v221h61V0H27" id="Z"/><g id="h"><use transform="matrix(0.05,0,0,0.05,0,0)" xlink:href="#N"/><use transform="matrix(0.05,0,0,0.05,10,0)" xlink:href="#O"/><use transform="matrix(0.05,0,0,0.05,22.950000000000003,0)" xlink:href="#P"/><use transform="matrix(0.05,0,0,0.05,31.950000000000003,0)" xlink:href="#Q"/><use transform="matrix(0.05,0,0,0.05,37.900000000000006,0)" xlink:href="#W"/><use transform="matrix(0.05,0,0,0.05,46.900000000000006,0)" xlink:href="#X"/><use transform="matrix(0.05,0,0,0.05,50.85000000000001,0)" xlink:href="#Q"/><use transform="matrix(0.05,0,0,0.05,56.80000000000001,0)" xlink:href="#Y"/><use transform="matrix(0.05,0,0,0.05,66.80000000000001,0)" xlink:href="#Z"/></g><path fill="#248814" d="M84 4C-5 8 30-112 23-190h32v120c0 31 7 50 39 49 72-2 45-101 50-169h31l1 190h-30c-1-10 1-25-2-33-11 22-28 36-60 37" id="aa"/><path fill="#248814" d="M115-194c53 0 69 39 70 98 0 66-23 100-70 100C84 3 66-7 56-30L54 0H23l1-261h32v101c10-23 28-34 59-34zm-8 174c40 0 45-34 45-75 0-40-5-75-45-74-42 0-51 32-51 76 0 43 10 73 51 73" id="ab"/><path fill="#248814" d="M24-231v-30h32v30H24zM24 0v-190h32V0H24" id="ac"/><g id="i"><use transform="matrix(0.05,0,0,0.05,0,0)" xlink:href="#K"/><use transform="matrix(0.05,0,0,0.05,12,0)" xlink:href="#aa"/><use transform="matrix(0.05,0,0,0.05,22,0)" xlink:href="#ab"/><use transform="matrix(0.05,0,0,0.05,32,0)" xlink:href="#X"/><use transform="matrix(0.05,0,0,0.05,35.95,0)" xlink:href="#ac"/><use transform="matrix(0.05,0,0,0.05,39.900000000000006,0)" xlink:href="#W"/></g><path fill="#248814" d="M185-189c-5-48-123-54-124 2 14 75 158 14 163 119 3 78-121 87-175 55-17-10-28-26-33-46l33-7c5 56 141 63 141-1 0-78-155-14-162-118-5-82 145-84 179-34 5 7 8 16 11 25" id="ad"/><path fill="#248814" d="M59-47c-2 24 18 29 38 22v24C64 9 27 4 27-40v-127H5v-23h24l9-43h21v43h35v23H59v120" id="ae"/><g id="j"><use transform="matrix(0.05,0,0,0.05,0,0)" xlink:href="#ad"/><use transform="matrix(0.05,0,0,0.05,12,0)" xlink:href="#aa"/><use transform="matrix(0.05,0,0,0.05,22,0)" xlink:href="#ab"/><use transform="matrix(0.05,0,0,0.05,32,0)" xlink:href="#S"/><use transform="matrix(0.05,0,0,0.05,42,0)" xlink:href="#U"/><use transform="matrix(0.05,0,0,0.05,52,0)" xlink:href="#ae"/></g><path d="M141-36C126-15 110 5 73 4 37 3 15-17 15-53c-1-64 63-63 125-63 3-35-9-54-41-54-24 1-41 7-42 31l-33-3c5-37 33-52 76-52 45 0 72 20 72 64v82c-1 20 7 32 28 27v20c-31 9-61-2-59-35zM48-53c0 20 12 33 32 33 41-3 63-29 60-74-43 2-92-5-92 41" id="af"/><path d="M206 0h-36l-40-164L89 0H53L-1-190h32L70-26l43-164h34l41 164 42-164h31" id="ag"/><path d="M135-143c-3-34-86-38-87 0 15 53 115 12 119 90S17 21 10-45l28-5c4 36 97 45 98 0-10-56-113-15-118-90-4-57 82-63 122-42 12 7 21 19 24 35" id="ah"/><path d="M16-82v-28h88v28H16" id="ai"/><path d="M210-169c-67 3-38 105-44 169h-31v-121c0-29-5-50-35-48C34-165 62-65 56 0H25l-1-190h30c1 10-1 24 2 32 10-44 99-50 107 0 11-21 27-35 58-36 85-2 47 119 55 194h-31v-121c0-29-5-49-35-48" id="aj"/><path d="M117-194c89-4 53 116 60 194h-32v-121c0-31-8-49-39-48C34-167 62-67 57 0H25l-1-190h30c1 10-1 24 2 32 11-22 29-35 61-36" id="ak"/><path d="M177-190C167-65 218 103 67 71c-23-6-38-20-44-43l32-5c15 47 100 32 89-28v-30C133-14 115 1 83 1 29 1 15-40 15-95c0-56 16-97 71-98 29-1 48 16 59 35 1-10 0-23 2-32h30zM94-22c36 0 50-32 50-73 0-42-14-75-50-75-39 0-46 34-46 75s6 73 46 73" id="al"/><path d="M100-194c63 0 86 42 84 106H49c0 40 14 67 53 68 26 1 43-12 49-29l28 8c-11 28-37 45-77 45C44 4 14-33 15-96c1-61 26-98 85-98zm52 81c6-60-76-77-97-28-3 7-6 17-6 28h103" id="am"/><path d="M114-163C36-179 61-72 57 0H25l-1-190h30c1 12-1 29 2 39 6-27 23-49 58-41v29" id="an"/><g id="k"><use transform="matrix(0.05,0,0,0.05,0,0)" xlink:href="#af"/><use transform="matrix(0.05,0,0,0.05,10,0)" xlink:href="#ag"/><use transform="matrix(0.05,0,0,0.05,22.950000000000003,0)" xlink:href="#ah"/><use transform="matrix(0.05,0,0,0.05,31.950000000000003,0)" xlink:href="#ai"/><use transform="matrix(0.05,0,0,0.05,37.900000000000006,0)" xlink:href="#aj"/><use transform="matrix(0.05,0,0,0.05,52.85,0)" xlink:href="#af"/><use transform="matrix(0.05,0,0,0.05,62.85,0)" xlink:href="#ak"/><use transform="matrix(0.05,0,0,0.05,72.85000000000001,0)" xlink:href="#af"/><use transform="matrix(0.05,0,0,0.05,82.85000000000001,0)" xlink:href="#al"/><use transform="matrix(0.05,0,0,0.05,92.85000000000001,0)" xlink:href="#am"/><use transform="matrix(0.05,0,0,0.05,102.85000000000001,0)" xlink:href="#an"/></g><path d="M194 0L95-120 63-95V0H30v-248h33v124l119-124h40L117-140 236 0h-42" id="ao"/><path d="M84 4C-5 8 30-112 23-190h32v120c0 31 7 50 39 49 72-2 45-101 50-169h31l1 190h-30c-1-10 1-25-2-33-11 22-28 36-60 37" id="ap"/><path d="M115-194c53 0 69 39 70 98 0 66-23 100-70 100C84 3 66-7 56-30L54 0H23l1-261h32v101c10-23 28-34 59-34zm-8 174c40 0 45-34 45-75 0-40-5-75-45-74-42 0-51 32-51 76 0 43 10 73 51 73" id="aq"/><path d="M59-47c-2 24 18 29 38 22v24C64 9 27 4 27-40v-127H5v-23h24l9-43h21v43h35v23H59v120" id="ar"/><g id="l"><use transform="matrix(0.05,0,0,0.05,0,0)" xlink:href="#ao"/><use transform="matrix(0.05,0,0,0.05,12,0)" xlink:href="#ap"/><use transform="matrix(0.05,0,0,0.05,22,0)" xlink:href="#aq"/><use transform="matrix(0.05,0,0,0.05,32,0)" xlink:href="#am"/><use transform="matrix(0.05,0,0,0.05,42,0)" xlink:href="#an"/><use transform="matrix(0.05,0,0,0.05,47.95,0)" xlink:href="#ak"/><use transform="matrix(0.05,0,0,0.05,57.95,0)" xlink:href="#am"/><use transform="matrix(0.05,0,0,0.05,67.95,0)" xlink:href="#ar"/><use transform="matrix(0.05,0,0,0.05,72.95,0)" xlink:href="#am"/><use transform="matrix(0.05,0,0,0.05,82.95,0)" xlink:href="#ah"/></g><path d="M96-169c-40 0-48 33-48 73s9 75 48 75c24 0 41-14 43-38l32 2c-6 37-31 61-74 61-59 0-76-41-82-99-10-93 101-131 147-64 4 7 5 14 7 22l-32 3c-4-21-16-35-41-35" id="as"/><path d="M24 0v-261h32V0H24" id="at"/><g id="m"><use transform="matrix(0.05,0,0,0.05,0,0)" xlink:href="#as"/><use transform="matrix(0.05,0,0,0.05,9,0)" xlink:href="#at"/><use transform="matrix(0.05,0,0,0.05,12.949999999999998,0)" xlink:href="#ap"/><use transform="matrix(0.05,0,0,0.05,22.95,0)" xlink:href="#ah"/><use transform="matrix(0.05,0,0,0.05,31.950000000000003,0)" xlink:href="#ar"/><use transform="matrix(0.05,0,0,0.05,36.95,0)" xlink:href="#am"/><use transform="matrix(0.05,0,0,0.05,46.95,0)" xlink:href="#an"/></g><path d="M100-194c62-1 85 37 85 99 1 63-27 99-86 99S16-35 15-95c0-66 28-99 85-99zM99-20c44 1 53-31 53-75 0-43-8-75-51-75s-53 32-53 75 10 74 51 75" id="au"/><path d="M85-194c31 0 48 13 60 33l-1-100h32l1 261h-30c-2-10 0-23-3-31C134-8 116 4 85 4 32 4 16-35 15-94c0-66 23-100 70-100zm9 24c-40 0-46 34-46 75 0 40 6 74 45 74 42 0 51-32 51-76 0-42-9-74-50-73" id="av"/><g id="n"><use transform="matrix(0.05,0,0,0.05,0,0)" xlink:href="#ak"/><use transform="matrix(0.05,0,0,0.05,10,0)" xlink:href="#au"/><use transform="matrix(0.05,0,0,0.05,20,0)" xlink:href="#av"/><use transform="matrix(0.05,0,0,0.05,30,0)" xlink:href="#am"/><use transform="matrix(0.05,0,0,0.05,40,0)" xlink:href="#ah"/></g><g id="o"><use transform="matrix(0.05,0,0,0.05,0,0)" xlink:href="#J"/><use transform="matrix(0.05,0,0,0.05,11.65,0)" xlink:href="#ac"/><use transform="matrix(0.05,0,0,0.05,15.600000000000001,0)" xlink:href="#V"/><use transform="matrix(0.05,0,0,0.05,21.55,0)" xlink:href="#ae"/><use transform="matrix(0.05,0,0,0.05,26.55,0)" xlink:href="#aa"/><use transform="matrix(0.05,0,0,0.05,36.55,0)" xlink:href="#N"/><use transform="matrix(0.05,0,0,0.05,46.55,0)" xlink:href="#X"/></g><path fill="#248814" d="M108 0H70L1-190h34L89-25l56-165h34" id="aw"/><g id="p"><use transform="matrix(0.05,0,0,0.05,0,0)" xlink:href="#K"/><use transform="matrix(0.05,0,0,0.05,12,0)" xlink:href="#V"/><use transform="matrix(0.05,0,0,0.05,17.95,0)" xlink:href="#ac"/><use transform="matrix(0.05,0,0,0.05,21.9,0)" xlink:href="#aw"/><use transform="matrix(0.05,0,0,0.05,30.899999999999995,0)" xlink:href="#N"/><use transform="matrix(0.05,0,0,0.05,40.9,0)" xlink:href="#ae"/><use transform="matrix(0.05,0,0,0.05,45.9,0)" xlink:href="#U"/></g><path fill="#248814" d="M100-194c62-1 85 37 85 99 1 63-27 99-86 99S16-35 15-95c0-66 28-99 85-99zM99-20c44 1 53-31 53-75 0-43-8-75-51-75s-53 32-53 75 10 74 51 75" id="ax"/><path fill="#248814" d="M85-194c31 0 48 13 60 33l-1-100h32l1 261h-30c-2-10 0-23-3-31C134-8 116 4 85 4 32 4 16-35 15-94c0-66 23-100 70-100zm9 24c-40 0-46 34-46 75 0 40 6 74 45 74 42 0 51-32 51-76 0-42-9-74-50-73" id="ay"/><g id="q"><use transform="matrix(0.05,0,0,0.05,0,0)" xlink:href="#L"/><use transform="matrix(0.05,0,0,0.05,12.950000000000001,0)" xlink:href="#X"/><use transform="matrix(0.05,0,0,0.05,16.900000000000002,0)" xlink:href="#ax"/><use transform="matrix(0.05,0,0,0.05,26.900000000000002,0)" xlink:href="#aa"/><use transform="matrix(0.05,0,0,0.05,36.900000000000006,0)" xlink:href="#ay"/></g><path d="M9 0v-24l116-142H16v-24h144v24L44-24h123V0H9" id="az"/><path d="M24-231v-30h32v30H24zM24 0v-190h32V0H24" id="aA"/><path d="M141 0L90-78 38 0H4l68-98-65-92h35l48 74 47-74h35l-64 92 68 98h-35" id="aB"/><path d="M108 0H70L1-190h34L89-25l56-165h34" id="aC"/><path d="M101-251c68 0 85 55 85 127S166 4 100 4C33 4 14-52 14-124c0-73 17-127 87-127zm-1 229c47 0 54-49 54-102s-4-102-53-102c-51 0-55 48-55 102 0 53 5 102 54 102" id="aD"/><path d="M27 0v-27h64v-190l-56 39v-29l58-41h29v221h61V0H27" id="aE"/><g id="r"><use transform="matrix(0.05,0,0,0.05,0,0)" xlink:href="#az"/><use transform="matrix(0.05,0,0,0.05,9,0)" xlink:href="#af"/><use transform="matrix(0.05,0,0,0.05,19,0)" xlink:href="#aq"/><use transform="matrix(0.05,0,0,0.05,29,0)" xlink:href="#aq"/><use transform="matrix(0.05,0,0,0.05,39,0)" xlink:href="#aA"/><use transform="matrix(0.05,0,0,0.05,42.95,0)" xlink:href="#aB"/><use transform="matrix(0.05,0,0,0.05,51.95,0)" xlink:href="#ai"/><use transform="matrix(0.05,0,0,0.05,57.900000000000006,0)" xlink:href="#ah"/><use transform="matrix(0.05,0,0,0.05,66.9,0)" xlink:href="#am"/><use transform="matrix(0.05,0,0,0.05,76.9,0)" xlink:href="#an"/><use transform="matrix(0.05,0,0,0.05,82.85000000000001,0)" xlink:href="#aC"/><use transform="matrix(0.05,0,0,0.05,91.85000000000001,0)" xlink:href="#am"/><use transform="matrix(0.05,0,0,0.05,101.85000000000001,0)" xlink:href="#an"/><use transform="matrix(0.05,0,0,0.05,107.80000000000001,0)" xlink:href="#aD"/><use transform="matrix(0.05,0,0,0.05,117.80000000000001,0)" xlink:href="#aE"/></g><path d="M143 0L79-87 56-68V0H24v-261h32v163l83-92h37l-77 82L181 0h-38" id="aF"/><g id="s"><use transform="matrix(0.05,0,0,0.05,0,0)" xlink:href="#am"/><use transform="matrix(0.05,0,0,0.05,10,0)" xlink:href="#at"/><use transform="matrix(0.05,0,0,0.05,13.949999999999998,0)" xlink:href="#aF"/><use transform="matrix(0.05,0,0,0.05,22.95,0)" xlink:href="#ai"/><use transform="matrix(0.05,0,0,0.05,28.899999999999995,0)" xlink:href="#ah"/><use transform="matrix(0.05,0,0,0.05,37.9,0)" xlink:href="#am"/><use transform="matrix(0.05,0,0,0.05,47.9,0)" xlink:href="#an"/><use transform="matrix(0.05,0,0,0.05,53.85,0)" xlink:href="#aC"/><use transform="matrix(0.05,0,0,0.05,62.85,0)" xlink:href="#am"/><use transform="matrix(0.05,0,0,0.05,72.85,0)" xlink:href="#an"/><use transform="matrix(0.05,0,0,0.05,78.8,0)" xlink:href="#aD"/><use transform="matrix(0.05,0,0,0.05,88.8,0)" xlink:href="#aE"/></g><path fill="#248814" d="M101-251c82-7 93 87 43 132L82-64C71-53 59-42 53-27h129V0H18c2-99 128-94 128-182 0-28-16-43-45-43s-46 15-49 41l-32-3c6-41 34-60 81-64" id="aG"/><g id="t"><use transform="matrix(0.05,0,0,0.05,0,0)" xlink:href="#N"/><use transform="matrix(0.05,0,0,0.05,10,0)" xlink:href="#O"/><use transform="matrix(0.05,0,0,0.05,22.950000000000003,0)" xlink:href="#P"/><use transform="matrix(0.05,0,0,0.05,31.950000000000003,0)" xlink:href="#Q"/><use transform="matrix(0.05,0,0,0.05,37.900000000000006,0)" xlink:href="#W"/><use transform="matrix(0.05,0,0,0.05,46.900000000000006,0)" xlink:href="#X"/><use transform="matrix(0.05,0,0,0.05,50.85000000000001,0)" xlink:href="#Q"/><use transform="matrix(0.05,0,0,0.05,56.80000000000001,0)" xlink:href="#Y"/><use transform="matrix(0.05,0,0,0.05,66.80000000000001,0)" xlink:href="#aG"/></g><path d="M30-248c87 1 191-15 191 75 0 78-77 80-158 76V0H30v-248zm33 125c57 0 124 11 124-50 0-59-68-47-124-48v98" id="aH"/><g id="u"><use transform="matrix(0.05,0,0,0.05,0,0)" xlink:href="#aH"/><use transform="matrix(0.05,0,0,0.05,12,0)" xlink:href="#am"/><use transform="matrix(0.05,0,0,0.05,22,0)" xlink:href="#am"/><use transform="matrix(0.05,0,0,0.05,32,0)" xlink:href="#an"/><use transform="matrix(0.05,0,0,0.05,37.95,0)" xlink:href="#aA"/><use transform="matrix(0.05,0,0,0.05,41.900000000000006,0)" xlink:href="#ak"/><use transform="matrix(0.05,0,0,0.05,51.900000000000006,0)" xlink:href="#al"/></g></defs></g></svg>